<?xml version="1.0" standalone="no"?>
<!DOCTYPE svg PUBLIC "-//W3C//DTD SVG 20010904//EN"
 "http://www.w3.org/TR/2001/REC-SVG-20010904/DTD/svg10.dtd">
<svg version="1.0" xmlns="http://www.w3.org/2000/svg"
 width="280.000000pt" height="280.000000pt" viewBox="0 0 280.000000 280.000000"
 preserveAspectRatio="xMidYMid meet">
<metadata>
Created by potrace 1.14, written by Peter Selinger 2001-2017
</metadata>
<g transform="translate(0.000000,280.000000) scale(0.100000,-0.100000)"
fill="#000000" stroke="none">
<path d="M0 1400 l0 -1400 1400 0 1400 0 0 1400 0 1400 -1400 0 -1400 0 0
-1400z m1602 944 c107 -24 189 -65 296 -147 51 -39 113 -84 135 -98 23 -14 49
-38 57 -55 8 -16 37 -58 64 -94 151 -202 214 -466 171 -712 -17 -100 -66 -236
-107 -295 -15 -23 -28 -44 -28 -48 0 -3 -9 -16 -21 -28 -11 -12 -42 -48 -67
-80 -34 -43 -70 -73 -144 -117 -55 -33 -102 -60 -107 -60 -4 0 -18 -12 -32
-26 -13 -14 -53 -42 -89 -62 -58 -33 -73 -37 -155 -40 -66 -3 -102 0 -135 12
-25 9 -90 25 -145 36 -55 10 -111 22 -125 26 -22 7 -23 6 -12 -9 7 -8 26 -18
41 -22 35 -8 62 -52 41 -65 -8 -5 -24 -7 -35 -4 -20 6 -74 58 -75 72 -2 30
-24 48 -114 94 -94 49 -107 53 -160 50 -50 -3 -55 -6 -44 -19 13 -16 -37 16
-83 52 -14 11 -42 49 -64 85 -39 67 -56 99 -33 66 43 -62 48 -66 68 -54 26 17
40 2 47 -52 7 -48 31 -63 97 -58 l39 3 -64 55 c-36 30 -82 75 -104 100 -22 25
-4 12 40 -31 44 -41 95 -86 113 -98 l34 -24 69 28 c38 16 69 33 69 39 -1 31
-24 107 -50 161 -56 118 -64 161 -11 58 l30 -58 -6 105 c-3 58 -7 106 -8 108
-2 2 -41 10 -86 18 -116 20 -275 61 -307 80 -15 8 -18 12 -7 8 59 -21 193 -54
210 -52 11 1 25 0 30 -4 12 -7 121 -28 148 -28 17 0 17 1 3 16 -9 8 -16 19
-16 23 0 4 -5 55 -11 114 -9 97 -9 113 11 183 11 43 19 83 16 90 -2 6 2 20 9
31 8 10 15 28 15 41 0 12 5 22 10 22 6 0 10 6 10 14 0 8 6 21 13 28 8 7 17 30
21 50 13 68 85 279 119 347 l34 68 -39 1 c-21 1 -55 9 -74 17 -20 8 -45 15
-56 15 -52 0 -240 -161 -315 -270 l-31 -46 156 2 157 2 -135 -8 c-170 -9 -198
-16 -206 -46 -17 -66 40 -305 101 -425 15 -28 24 -54 21 -57 -3 -3 -24 33 -45
79 -42 90 -85 230 -96 314 l-7 50 -19 -38 c-26 -50 -89 -239 -89 -266 0 -12 5
-32 12 -44 10 -19 9 -20 -4 -9 -13 10 -16 6 -22 -34 -15 -110 3 -318 35 -401
5 -14 7 -28 5 -30 -9 -9 -37 103 -49 192 -10 81 -15 92 -43 117 -17 15 -39 45
-49 67 -10 22 -22 38 -26 35 -5 -3 -9 9 -9 26 0 38 30 106 40 90 10 -16 38 -1
43 23 3 17 5 15 6 -8 1 -23 4 -26 11 -14 6 10 4 29 -5 55 -41 115 5 224 122
284 43 22 47 28 58 94 10 58 53 141 97 187 50 51 145 96 223 105 60 7 130 46
102 58 -8 3 -4 12 13 25 14 12 30 25 35 30 16 16 383 4 467 -15z m-1021 -921
c13 -16 12 -17 -3 -4 -10 7 -18 15 -18 17 0 8 8 3 21 -13z m79 -88 c35 -36 62
-65 59 -65 -2 0 -34 29 -69 65 -35 36 -62 65 -59 65 2 0 34 -29 69 -65z m-100
-75 c8 -5 11 -10 5 -10 -5 0 -17 5 -25 10 -8 5 -10 10 -5 10 6 0 17 -5 25 -10z
m224 -39 c-3 -3 -15 6 -27 18 l-22 24 27 -19 c14 -10 24 -21 22 -23z m206
-133 c0 -6 -6 -5 -15 2 -8 7 -15 14 -15 16 0 2 7 1 15 -2 8 -4 15 -11 15 -16z
m-391 -163 c0 -5 -6 1 -14 15 -8 14 -14 30 -14 35 0 6 6 -1 14 -15 8 -14 14
-29 14 -35z m72 -12 c13 -16 12 -17 -3 -4 -10 7 -18 15 -18 17 0 8 8 3 21 -13z
m-53 -28 c-3 -3 -9 2 -12 12 -6 14 -5 15 5 6 7 -7 10 -15 7 -18z"/>
<path d="M1364 2329 c-80 -31 -199 -253 -258 -485 -18 -69 -21 -118 -7 -95 7
11 10 9 16 -9 6 -19 11 -21 43 -15 21 4 39 9 42 12 3 2 4 31 3 64 -1 33 2 59
7 59 6 0 10 -5 10 -11 0 -8 4 -8 14 0 12 10 18 8 31 -12 12 -19 27 -25 68 -29
88 -9 115 -1 137 42 11 21 26 40 35 43 12 5 15 -3 15 -44 0 -40 5 -55 23 -70
27 -22 50 -24 67 -4 7 8 16 15 21 15 5 0 9 -7 9 -15 0 -8 5 -15 10 -15 6 0 10
5 10 10 0 6 5 10 10 10 6 0 10 -17 10 -38 0 -25 7 -48 20 -62 11 -13 23 -35
27 -49 10 -43 36 -59 99 -63 46 -3 58 -7 56 -18 -3 -12 -1 -12 9 -3 10 10 9
16 -2 30 -13 16 -12 17 3 5 14 -12 20 -8 43 32 l27 46 -17 52 c-25 74 -69 170
-117 255 l-41 72 -31 -15 -31 -15 24 19 24 19 -21 34 c-24 39 -139 155 -146
148 -3 -3 5 -38 18 -79 14 -41 27 -93 30 -115 4 -22 -5 -2 -19 45 -14 47 -38
110 -53 140 -22 45 -36 59 -77 79 -59 29 -114 41 -141 30z"/>
<path d="M1278 2323 c-10 -2 -18 -8 -18 -12 0 -3 -12 -8 -26 -9 -15 -1 -32 -6
-39 -12 -6 -5 -15 -8 -19 -5 -3 3 -2 0 3 -7 8 -8 15 -8 28 3 16 12 17 12 6 -2
-7 -9 -10 -19 -6 -23 4 -4 -1 -4 -12 -1 -11 3 -5 -2 13 -12 l34 -18 21 30 c12
17 32 40 44 53 23 23 16 27 -29 15z"/>
<path d="M1481 2326 c2 -2 15 -9 29 -15 24 -11 24 -11 6 3 -16 13 -49 24 -35
12z"/>
<path d="M1540 2311 c0 -4 11 -18 25 -31 13 -12 22 -26 20 -31 -3 -4 0 -11 6
-15 8 -4 9 -3 5 4 -30 50 95 -62 157 -139 l37 -47 58 24 c31 13 67 24 80 24
65 0 -7 65 -153 135 -89 44 -235 91 -235 76z"/>
<path d="M902 2201 c-96 -33 -180 -120 -208 -217 -22 -78 -14 -85 30 -25 56
78 112 137 194 203 78 62 74 70 -16 39z"/>
<path d="M1862 2071 c-29 -10 -55 -21 -59 -24 -3 -4 6 -24 19 -45 36 -54 82
-148 119 -239 17 -43 32 -80 34 -82 6 -5 71 130 89 186 17 50 17 53 -5 95 -12
24 -35 62 -51 86 -34 49 -59 53 -146 23z"/>
<path d="M2050 2025 c30 -51 40 -63 40 -44 -1 7 -15 30 -32 49 l-31 35 23 -40z"/>
<path d="M2100 1959 c0 -12 11 -52 24 -89 30 -83 56 -214 56 -285 0 -51 0 -52
42 -71 23 -10 55 -30 71 -43 l29 -24 -7 49 c-14 91 -45 199 -80 273 -33 68
-121 211 -131 211 -2 0 -4 -10 -4 -21z"/>
<path d="M2087 1884 c-4 -4 -7 -13 -7 -21 0 -7 -23 -60 -51 -117 -48 -97 -50
-106 -38 -132 11 -22 27 -31 79 -45 36 -10 70 -18 76 -19 16 0 7 113 -16 215
-23 98 -34 128 -43 119z"/>
<path d="M574 1827 c-56 -39 -94 -103 -94 -159 0 -21 9 -64 20 -95 11 -31 17
-61 13 -66 -9 -16 -10 -56 -1 -51 4 3 8 13 8 23 0 38 43 176 81 264 22 51 43
98 46 105 10 22 -24 13 -73 -21z"/>
<path d="M1041 1694 c0 -11 3 -14 6 -6 3 7 2 16 -1 19 -3 4 -6 -2 -5 -13z"/>
<path d="M1957 1617 c-3 -9 1 -18 9 -21 16 -6 18 2 5 22 -7 11 -9 11 -14 -1z"/>
<path d="M1917 1551 c-9 -15 -13 -32 -9 -36 4 -5 2 -5 -4 -2 -12 7 -25 -14
-29 -45 -1 -15 1 -15 14 -5 12 10 14 9 8 -5 -4 -12 -1 -18 9 -18 9 0 14 -3 12
-7 -2 -5 -12 -25 -21 -46 -18 -39 -73 -96 -93 -97 -7 0 -15 -12 -18 -26 -5
-17 -12 -24 -21 -20 -10 3 -15 -1 -15 -13 0 -11 -6 -22 -12 -24 -10 -4 -9 -8
2 -16 13 -9 13 -11 -2 -11 -10 0 -18 -5 -18 -11 0 -14 98 -5 220 20 l85 17 -2
60 c-2 32 -6 91 -9 130 -5 70 -6 72 -50 105 -29 21 -40 35 -32 40 7 4 19 -3
30 -17 27 -34 41 -31 33 9 -12 55 -51 64 -78 18z"/>
<path d="M2014 1521 c8 -36 22 -57 60 -91 27 -25 47 -38 44 -29 -5 11 -1 16
10 15 14 -1 18 10 20 57 2 31 0 57 -3 57 -3 0 -36 9 -74 19 l-68 19 11 -47z"/>
<path d="M2178 1478 c-4 -86 12 -208 29 -208 12 0 52 26 81 53 57 55 39 108
-58 166 -46 28 -50 27 -52 -11z"/>
<path d="M2034 1390 c3 -30 6 -68 6 -85 l0 -30 15 30 c9 17 21 35 28 40 21 18
17 31 -20 66 l-36 34 7 -55z"/>
<path d="M496 1369 c-4 -23 -8 -40 -10 -38 -3 2 -4 6 -3 9 0 3 -5 16 -12 29
-9 17 -16 20 -24 12 -14 -14 5 -49 39 -74 l24 -18 0 61 c0 33 -2 60 -4 60 -2
0 -6 -19 -10 -41z"/>
<path d="M2268 1287 c-33 -22 -46 -37 -41 -47 3 -8 16 -44 28 -79 l21 -63 17
73 c18 84 29 149 25 148 -2 0 -24 -15 -50 -32z"/>
<path d="M2041 1243 c-1 -35 2 -37 34 -23 15 6 16 9 4 9 -9 1 -21 11 -27 24
-10 21 -11 20 -11 -10z"/>
<path d="M2172 1233 c-8 -3 -11 -17 -7 -41 l5 -37 -10 33 c-12 37 -10 36 -70
18 l-45 -13 -8 -84 c-14 -154 -47 -260 -135 -431 -9 -19 39 -5 75 21 53 39
153 136 153 150 0 6 -12 11 -26 11 -36 0 -28 28 16 58 19 13 38 32 42 43 4 10
10 19 14 19 3 0 4 -7 0 -15 -8 -21 14 -19 31 3 40 50 46 149 14 226 -20 46
-24 49 -49 39z m5 -235 c-3 -8 -6 -5 -6 6 -1 11 2 17 5 13 3 -3 4 -12 1 -19z"/>
<path d="M1999 1185 c-3 -2 -65 -14 -139 -27 -74 -12 -127 -24 -117 -26 9 -2
17 -10 17 -18 0 -10 -12 -14 -40 -14 -21 0 -54 -6 -72 -14 -18 -8 -46 -17 -61
-21 -15 -3 -25 -10 -22 -14 3 -5 -8 -12 -25 -16 -42 -9 -90 -34 -90 -47 0 -6
-3 -8 -7 -5 -3 4 -13 1 -21 -6 -13 -10 -14 -9 -7 2 4 8 -8 2 -28 -14 -26 -21
-33 -32 -24 -38 8 -6 5 -7 -7 -3 -21 7 -49 -11 -39 -27 3 -5 2 -7 -4 -4 -5 4
-37 -13 -69 -36 -32 -24 -76 -53 -97 -66 l-37 -23 50 -58 c55 -64 133 -127
197 -159 73 -37 214 -27 381 27 52 16 88 34 96 47 13 20 12 21 -19 17 -44 -5
-164 14 -234 38 -82 27 -155 60 -148 66 3 3 22 -3 44 -14 90 -46 293 -90 358
-78 39 8 77 61 119 166 57 141 90 411 45 365z m-611 -410 c20 -14 33 -25 29
-25 -5 0 -25 11 -45 25 -20 14 -33 25 -29 25 5 0 25 -11 45 -25z"/>
<path d="M1055 1160 c11 -5 31 -9 45 -9 23 0 23 1 5 9 -11 5 -31 9 -45 9 -23
0 -23 -1 -5 -9z"/>
<path d="M1032 1106 c-3 -30 20 -55 51 -56 12 0 17 8 17 25 0 14 4 25 8 25 5
0 9 6 9 14 0 9 -14 15 -42 18 -39 3 -41 2 -43 -26z"/>
<path d="M1143 1041 l-22 -19 30 -12 c37 -16 32 -24 -6 -10 -26 10 -31 7 -66
-32 -42 -47 -46 -63 -25 -111 32 -75 35 -75 115 -23 45 30 69 51 65 59 -4 7
-4 9 1 5 9 -8 81 39 110 73 17 19 17 21 3 16 -12 -4 -15 -2 -11 9 3 8 -1 14
-10 14 -9 0 -24 8 -33 18 -15 14 -17 14 -12 1 4 -11 -3 -19 -23 -26 -25 -10
-31 -9 -39 7 -6 10 -10 27 -10 37 0 15 -2 16 -10 3 -6 -10 -10 -11 -10 -2 0
17 -21 14 -47 -7z m109 -72 c18 -12 25 -18 15 -15 -10 3 -24 6 -31 6 -7 0 -21
7 -32 15 -32 24 9 19 48 -6z"/>
<path d="M1030 1008 l0 -43 20 25 c24 30 26 54 4 46 -8 -3 -12 -2 -9 4 3 6 1
10 -4 10 -6 0 -11 -19 -11 -42z"/>
<path d="M1335 1030 c-3 -5 -1 -10 4 -10 6 0 11 5 11 10 0 6 -2 10 -4 10 -3 0
-8 -4 -11 -10z"/>
<path d="M1061 784 c0 -11 3 -14 6 -6 3 7 2 16 -1 19 -3 4 -6 -2 -5 -13z"/>
<path d="M1076 751 c-3 -5 3 -33 13 -62 35 -101 40 -107 95 -123 58 -16 136
-30 136 -24 0 3 -25 22 -55 43 -56 38 -165 148 -165 166 0 11 -17 12 -24 0z"/>
<path d="M983 707 c-29 -12 -53 -24 -53 -27 0 -3 39 -25 86 -48 47 -24 84 -39
82 -35 -2 4 -14 36 -27 71 -13 34 -26 62 -30 61 -3 -1 -30 -11 -58 -22z"/>
<path d="M1870 639 c0 -5 5 -7 10 -4 6 3 10 8 10 11 0 2 -4 4 -10 4 -5 0 -10
-5 -10 -11z"/>
<path d="M1723 559 c-62 -22 -158 -38 -233 -40 -81 -2 -25 -17 67 -18 77 -1
162 23 205 59 27 23 28 23 -39 -1z"/>
</g>
</svg>
